<svg id="Capa_1" enable-background="new 0 0 512 512" height="512" viewBox="0 0 512 512" width="512" xmlns="http://www.w3.org/2000/svg" xmlns:xlink="http://www.w3.org/1999/xlink"><linearGradient id="SVGID_1_" gradientUnits="userSpaceOnUse" x1="-21.409" x2="490.399" y1="373.272" y2="77.779"><stop offset="0" stop-color="#d2deff" stop-opacity="0"/><stop offset=".459" stop-color="#cee2fd" stop-opacity=".67"/><stop offset=".6852" stop-color="#c9e7fa"/></linearGradient><g><g><path d="m451.798 43.963c-160.556-97.869-410.51-8.611-439.594 61.949-38.908 94.394 26.578 110.528 38.743 187.874 9.761 62.061-51.182 121.495-16.394 176.282 37.883 59.663 163.465 44.681 211.198 16.447 87.376-51.683 43.309-112.012 84.684-187.299 39.407-71.707 116.244-42.625 160.961-99.99 42.5-54.521 14.31-122.402-39.598-155.263z" fill="url(#SVGID_1_)"/></g><g><g><path d="m472.149 367.37-76.188-80.229c2.937-2.571 5.779-5.197 8.509-7.882 33.037-32.509 46.855-69.478 38.907-104.097-7.947-34.62-36.506-61.86-80.414-76.704-41.802-14.132-93.1-15.423-144.445-3.636s-96.943 35.323-128.396 66.273c-33.037 32.509-46.854 69.478-38.907 104.096 4.801 20.914 17.57 39.702 36.927 54.333.446.337.904.664 1.355.996.223 13.489 5.546 27.164 15.712 40.075 9.48 12.03 22.6 22.54 36.94 30.22-6.47 8.89-13.93 17.14-21.6 24.11-5.11 4.65-5.48 12.55-.83 17.66 2.46 2.71 5.85 4.09 9.25 4.09 3 0 6.01-1.08 8.4-3.25 10.9-9.92 20.64-21.18 28.56-32.9 6.69 1.91 13.36 3.11 19.81 3.49 6.88.42 12.81-4.84 13.21-11.73.41-6.89-4.84-12.81-11.73-13.22-2.81-.17-5.69-.55-8.62-1.14 3.84-8.59 6.49-17.05 7.94-25.23 6.823.521 13.772.789 20.824.789 14.712 0 29.86-1.151 45.172-3.474l2.769 107.181c.148 5.714 6.988 8.56 11.145 4.636l82.859-78.21c1.179-1.113 2.726-1.754 4.346-1.8l113.893-3.287c5.714-.167 8.539-7.016 4.602-11.16zm-317.16 2.014c-11.71-6.1-22.54-14.62-30.14-24.26-1.762-2.24-3.585-4.853-5.203-7.745 12.91 5.418 27.104 9.498 42.203 12.198-.046-.008-.094-.015-.14-.023-1.29 6.54-3.62 13.22-6.72 19.83zm-38.497-61.256c1.961-6.336 5.52-12.953 11.876-13.435.35-.02.7-.04 1.05-.04 11.949 0 25.898 14.958 31.009 29.177-16.526-3.46-31.367-8.767-43.935-15.702zm70.556 19.53c-.58-3.868-1.49-7.626-2.729-11.255-9.51-27.89-34.94-48.38-57.84-46.64-16.64 1.264-25.838 12.419-30.89 23.393-10.419-9.802-17.137-21.055-20.008-33.56-5.932-25.839 5.459-54.493 32.075-80.683 28.2-27.749 69.559-48.96 116.456-59.727 21.448-4.924 42.805-7.376 63.254-7.376 24.265 0 47.253 3.454 67.592 10.33 35.374 11.959 58.122 32.775 64.055 58.615 5.932 25.839-5.46 54.493-32.076 80.684-2.621 2.579-5.357 5.101-8.199 7.564l-120.039-126.404c-4.169-4.391-11.557-1.331-11.401 4.722l4.585 177.491c-22.101 3.602-44.071 4.561-64.835 2.846z" fill="#bae1f8"/><g><g><g><path d="m207.363 328.483c-47.128 0-89.807-11.727-119.222-33.96-19.356-14.631-32.126-33.418-36.927-54.333-7.947-34.619 5.87-71.587 38.907-104.096 31.453-30.95 77.052-54.486 128.396-66.273 51.346-11.787 102.644-10.496 144.445 3.636 43.908 14.844 72.467 42.084 80.414 76.704 7.948 34.62-5.87 71.588-38.907 104.097-31.453 30.949-77.052 54.485-128.396 66.273-23.274 5.344-46.489 7.952-68.71 7.952zm80.002-241.672c-20.449 0-41.806 2.453-63.254 7.376-46.897 10.766-88.256 31.978-116.456 59.727-26.616 26.19-38.007 54.844-32.075 80.683 3.52 15.33 12.816 28.782 27.635 39.981 17.729 13.4 42.245 22.617 70.896 26.654 30.122 4.245 63.444 2.492 96.368-5.067 46.897-10.766 88.256-31.978 116.456-59.727 26.616-26.19 38.008-54.844 32.076-80.684-5.933-25.839-28.681-46.656-64.055-58.615-20.338-6.875-43.326-10.328-67.591-10.328z" fill="#2a719b"/></g><g><path d="m138.039 318.944c-11.98-3.58-23.15-8.17-33.26-13.72-1.24-6.56-1.31-13.12-.15-19.58.42-2.33 1.07-5.3 2.05-8.56 6.74 4.67 14.35 8.77 22.69 12.27-.05.24-.09.47-.13.69-2 11.18 3.42 21.65 8.8 28.9z" fill="#226191"/></g><g><path d="m187.219 354.064c-2.81-.17-5.69-.55-8.62-1.14 3.84-8.59 6.49-17.05 7.94-25.23-8.5-.65-16.79-1.7-24.83-3.14-1.29 6.54-3.62 13.22-6.72 19.83-11.71-6.1-22.54-14.62-30.14-24.26-5.71-7.26-12.08-18.42-9.94-30.4 1.29-7.19 4.75-19.37 13.46-20.03.35-.02.7-.04 1.05-.04 11.95 0 25.9 14.96 31.01 29.18 4.44.94 9 1.74 13.68 2.4 4.25.6 8.57 1.08 12.94 1.43-.58-3.87-1.49-7.63-2.73-11.26-9.51-27.89-34.94-48.38-57.84-46.64-26.46 2.01-34.11 29.03-36.18 40.56-2.99 16.71 2.17 34.09 14.91 50.27 9.48 12.03 22.6 22.54 36.94 30.22-6.47 8.89-13.93 17.14-21.6 24.11-5.11 4.65-5.48 12.55-.83 17.66 2.46 2.71 5.85 4.09 9.25 4.09 3 0 6.01-1.08 8.4-3.25 10.9-9.92 20.64-21.18 28.56-32.9 6.69 1.91 13.36 3.11 19.81 3.49 6.88.42 12.81-4.84 13.21-11.73.41-6.89-4.84-12.81-11.73-13.22z" fill="#2a719b"/></g><g><path d="m198.949 367.284c-.4 6.89-6.33 12.15-13.21 11.73-6.45-.38-13.12-1.58-19.81-3.49 8.26-11.95 12.67-22.6 12.67-22.6 2.93.59 5.81.97 8.62 1.14 6.89.41 12.14 6.33 11.73 13.22z" fill="#226191"/></g><path d="m186.539 327.694c-1.02 5.76-2.64 11.66-4.85 17.65-8.74-.79-17.26-1.97-25.53-3.54 2.52-5.76 4.43-11.56 5.55-17.25 8.04 1.44 16.33 2.49 24.83 3.14z" fill="#226191"/></g><g><path d="m247.298 122.321 8.005 309.869c.148 5.714 6.988 8.56 11.145 4.636l82.859-78.21c1.179-1.113 2.726-1.754 4.346-1.8l113.893-3.287c5.714-.165 8.539-7.014 4.602-11.159l-213.45-224.771c-4.168-4.391-11.556-1.331-11.4 4.722z" fill="#73aacf"/><path d="m424.81 354.76-71.16 2.06c-1.62.04-3.16.68-4.34 1.8l-44.55 42.05-4.13-159.95c-.15-6.05 7.23-9.11 11.4-4.72z" fill="#3e85a9"/><path d="m475.775 338.927-89.869-94.635c1.548-1.42 3.074-2.851 4.536-4.289 27.9-27.454 39.777-57.771 33.442-85.366-6.336-27.596-30.246-49.697-67.326-62.233-20.792-7.029-44.071-10.593-69.193-10.593-21.027 0-42.685 2.524-64.373 7.503-47.786 10.97-89.993 32.646-118.844 61.036-27.9 27.453-39.776 57.77-33.441 85.366 2.85 12.412 9.219 23.708 18.936 33.614-2.22 5.58-3.517 10.944-4.266 15.114-.074.413-.12.828-.184 1.241-15.066-13.101-25.082-29.083-29.106-46.613-7.544-32.863 5.788-68.168 37.541-99.414 30.803-30.31 75.554-53.381 126.009-64.964s100.787-10.34 141.725 3.5c42.202 14.267 69.599 40.223 77.143 73.086 6.599 28.74-2.485 58.909-26.269 87.245-1.775 2.115-1.5 5.269.615 7.044 2.117 1.776 5.27 1.5 7.045-.615 25.877-30.831 35.682-63.996 28.354-95.911-8.35-36.375-38.07-64.901-83.686-80.322-42.667-14.424-94.93-15.765-147.166-3.772-52.233 11.991-98.681 35.992-130.784 67.582-34.321 33.772-48.624 72.404-40.273 108.779 5.019 21.867 18.239 41.477 38.229 56.766.803 13.766 6.457 27.59 16.712 40.614 8.514 10.805 20.244 20.841 33.429 28.668-5.319 6.765-11.306 13.215-17.527 18.869-3.459 3.148-5.485 7.453-5.704 12.122-.22 4.667 1.394 9.143 4.537 12.598 3.305 3.641 8.026 5.729 12.952 5.729 4.354 0 8.531-1.615 11.765-4.552 10.142-9.229 19.527-19.842 27.306-30.856 5.95 1.49 11.788 2.41 17.395 2.74 4.651.277 9.159-1.269 12.659-4.375 3.5-3.107 5.576-7.388 5.847-12.048.573-9.632-6.794-17.935-16.419-18.508-.608-.037-1.223-.085-1.84-.144 2.078-5.367 3.709-10.705 4.889-15.961 5.531.334 11.131.514 16.792.514 13.239 0 26.779-.921 40.319-2.729l2.623 101.566c.119 4.643 2.857 8.635 7.146 10.419 1.473.613 3.001.912 4.511.912 2.885 0 5.7-1.095 7.918-3.188l82.86-78.211c.287-.271.663-.427 1.058-.438l113.894-3.288c4.643-.134 8.627-2.885 10.398-7.179 1.77-4.296.884-9.056-2.315-12.423zm-366.637-6.427c-11.835-15.03-16.647-31.039-13.918-46.293 1.863-10.381 8.676-34.714 31.638-36.458 20.775-1.588 43.918 17.429 52.729 43.271.447 1.309.836 2.649 1.192 4.005-2.005-.225-4-.466-5.97-.744-3.655-.515-7.226-1.119-10.722-1.798-6.296-14.819-20.659-29.83-34.668-29.83-.445 0-.891.022-1.429.054-8.939.678-15.333 9.248-18.004 24.137-2.463 13.788 4.586 26.301 10.936 34.375 6.918 8.775 16.557 16.905 27.469 23.235-1.66 3.178-4.287 7.855-7.695 12.811-12.5-7.278-23.602-16.667-31.558-26.765zm43.472 4.843c-6.995-4.142-13.35-9.078-18.609-14.421 6.936 2.176 14.161 4.024 21.623 5.538-.8 2.895-1.79 5.856-3.014 8.883zm-1.366-45.818c-10.375-2.789-19.914-6.381-28.535-10.751 1.539-3.422 3.535-5.906 5.944-6.089.256-.015.51-.031.766-.031 6.711 0 15.8 7.412 21.825 16.871zm35.678 67.53c4.125.246 7.281 3.804 7.035 7.939-.116 1.995-1.005 3.827-2.503 5.156-1.496 1.33-3.419 1.992-5.422 1.872-3.9-.23-7.939-.789-12.066-1.657 3.53-5.701 6.078-10.684 7.595-13.868 1.806.258 3.599.451 5.361.558zm-12.888-8.172c-.012.027-.02.055-.031.082-.007.016-.017.028-.023.044-.042.102-4.332 10.342-12.164 21.672-.005.008-.008.016-.013.023s-.011.013-.016.02c-7.713 11.414-17.32 22.479-27.779 31.998-1.386 1.258-3.175 1.951-5.038 1.951-2.112 0-4.134-.893-5.552-2.455-1.351-1.484-2.043-3.403-1.949-5.403s.963-3.844 2.443-5.192c8.06-7.324 15.746-15.901 22.235-24.808s0-.001.001-.001c.014-.02.03-.039.044-.059.001-.001.002-.003.003-.004 8.257-11.014 13.153-21.867 13.358-22.325.001-.002.001-.003.002-.005 2.582-5.516 4.575-10.933 5.96-16.167 4.907.781 9.907 1.411 14.975 1.91-1.477 6.133-3.634 12.406-6.456 18.719zm33.328-27.401c-30.925 0-59.991-5.209-84.163-15.056-2.723-5.331-4.495-11.516-3.369-17.82.005-.03.012-.061.017-.091 15.423 7.559 33.405 12.828 53.567 15.668 23.001 3.241 48.335 3.037 73.618-.571l.389 15.08c-13.457 1.845-26.914 2.79-40.059 2.79zm261.483 24.053c-.148.361-.534.97-1.442.996l-113.894 3.288c-2.85.083-5.561 1.206-7.633 3.162l-82.859 78.21c-.662.625-1.364.465-1.725.315s-.968-.537-.991-1.444l-3.419-132.377c-.037-1.444-.696-2.801-1.809-3.722s-2.568-1.315-3.993-1.084c-20.254 3.3-40.628 4.326-59.813 3.073-.581-2.784-1.314-5.52-2.217-8.161-10.212-29.95-37.855-51.916-62.951-50.012-12.899.98-23.637 7.542-31.053 18.975-.221.341-.429.685-.641 1.029-7.069-7.931-11.761-16.755-13.953-26.304-5.528-24.084 5.378-51.075 30.709-76 27.55-27.109 68.06-47.855 114.068-58.417 20.954-4.811 41.859-7.25 62.135-7.25 24.03 0 46.232 3.387 65.99 10.066 33.667 11.382 55.254 30.914 60.783 54.997 5.528 24.083-5.378 51.074-30.71 76.001-1.419 1.396-2.903 2.786-4.409 4.164l-116.694-122.885c-3.335-3.513-8.385-4.586-12.861-2.731-4.477 1.854-7.288 6.182-7.163 11.026l3.812 147.53c.071 2.761 2.396 4.923 5.127 4.87 2.761-.071 4.94-2.367 4.869-5.128l-3.812-147.53c-.023-.914.527-1.336.994-1.529.466-.193 1.154-.284 1.783.378l213.45 224.771c.626.66.47 1.362.322 1.723z" fill="#014073"/></g></g></g><path d="m128.96 63.358c-1.279 0-2.56-.488-3.535-1.464-1.953-1.953-1.953-5.119 0-7.071l10-10c1.951-1.952 5.119-1.952 7.07 0 1.953 1.953 1.953 5.119 0 7.071l-10 10c-.975.976-2.256 1.464-3.535 1.464z" fill="#ff7eb8"/><path d="m462.979 280.236c-2.762 0-5-2.239-5-5 0-3.309-2.691-6-6-6-2.762 0-5-2.239-5-5s2.238-5 5-5c3.309 0 6-2.691 6-6 0-2.761 2.238-5 5-5s5 2.239 5 5c0 3.309 2.691 6 6 6 2.762 0 5 2.239 5 5s-2.238 5-5 5c-3.309 0-6 2.691-6 6 0 2.762-2.239 5-5 5z" fill="#ff7eb8"/><path d="m49.022 374.723c-2.762 0-5-2.239-5-5 0-3.309-2.692-6-6.001-6-2.762 0-5-2.239-5-5s2.238-5 5-5c3.309 0 6.001-2.691 6.001-6 0-2.761 2.238-5 5-5s5 2.239 5 5c0 3.309 2.691 6 5.999 6 2.762 0 5 2.239 5 5s-2.238 5-5 5c-3.308 0-5.999 2.691-5.999 6 0 2.761-2.238 5-5 5z" fill="#2a719b"/><g fill="#ff7eb8"><path d="m368.5 190.843c-1.279 0-2.56-.488-3.535-1.464-1.953-1.953-1.953-5.119 0-7.071l10-10c1.951-1.952 5.119-1.952 7.07 0 1.953 1.953 1.953 5.119 0 7.071l-10 10c-.975.976-2.256 1.464-3.535 1.464z"/><path d="m206.62 439.28c-1.279 0-2.56-.488-3.535-1.464-1.953-1.953-1.953-5.119 0-7.071l10-10c1.951-1.952 5.119-1.952 7.07 0 1.953 1.953 1.953 5.119 0 7.071l-10 10c-.975.976-2.256 1.464-3.535 1.464z"/></g></g></g></svg>