<svg id="Layer_1" data-name="Layer 1" xmlns="http://www.w3.org/2000/svg" xmlns:xlink="http://www.w3.org/1999/xlink" viewBox="0 0 2323.8 1120.83"><defs><style>.cls-1{fill:url(#linear-gradient);}.cls-2{fill:#de63d6;}.cls-3{fill:#c140b8;}.cls-4{fill:#820e7b;}</style><linearGradient id="linear-gradient" x1="1325.17" y1="266.76" x2="1325.17" y2="268.94" gradientTransform="translate(2609898.81 93067.76) rotate(180) scale(1968.63 346.1)" gradientUnits="userSpaceOnUse"><stop offset="0" stop-color="#b81bb8"/><stop offset="1" stop-color="#700079"/></linearGradient></defs><title>lines</title><g id="Group_10" data-name="Group 10"><path id="Path_16" data-name="Path 16" class="cls-1" d="M2328.9,412.24V-4.92S1173.55-5.36-8.49-5.36c0,0-77.78,429.21-50.66,568s215.62,82.64,428.87,156c364.87,125.49,552-248,1151.72,0C2008.82,800.08,2328.9,412.24,2328.9,412.24Z"/><path id="Path_17" data-name="Path 17" class="cls-2" d="M-111,69.39C-329,787,121.1,658.29,302.82,792.54s256-20.32,594-104.75c98.69-24.65-112.17-171,326.41-38s722.64,197.13,1033.7-122c592.9-465.75,89-524.44,69.24-291.41,5,388.45-579.43,491.65-820.57,413.44C1081.5,512.18,959.53,472.79,731.83,472.79,465,467.41,549.25,689.74,103,586.42-178.11,521.34-199.37-2.06-111,69.39Z"/><path id="Path_18" data-name="Path 18" class="cls-3" d="M-134,358.55c-96.56-57.11-28,284.33,13.26,313.21,96.54,67.66,296.13,26.63,423.51,120.73,181.72,134.25,256-20.31,594-104.74,98.69-24.66-112.17-171,326.41-38s786.41,209.42,1033.77-122c592.9-465.75,211.93-380.39,68.4-170.62C2174,731.54,1746.74,728,1505.6,649.74,1081.5,512.18,1052,493,824.32,493c-343-3.76-71.61,291.43-604.26,194.79C2.41,617.19-43,560.39-134,358.55Z"/><path id="Path_19" data-name="Path 19" class="cls-4" d="M-85.72,698.26c106.81,86.38,252.29,42.08,434,176.33s361.21-76,699.17-160.46,724,300.55,1211.55-137.27,251-520,62.51-149.55-591.22,320-1123.27,173.93S928.05,941,228.77,732.69c-65.88-19.64-223.58-76.82-342-273.24C-385.8,381.57-171.8,628.63-85.72,698.26Z"/></g></svg>